<svg width="32" height="8" viewBox="0 0 32 8" fill="none" xmlns="http://www.w3.org/2000/svg">
<path d="M7.51888 7.12182H5.74492L5.20224 5.81286H2.24575L1.75132 7.12182H0.0065918L2.67213 0.51082H4.58174L7.51888 7.12182ZM3.65122 2.09054L2.68192 4.6592H4.71757L3.65122 2.09054ZM13.9628 0.51082H15.3974V7.12182H13.7494V2.99239L11.9658 5.06658H11.7139L9.93044 2.99239V7.12174H8.28239V0.51082H9.71698L11.8397 2.96321L13.9628 0.51082ZM19.5732 0.51082C21.9867 0.51082 23.2272 2.01309 23.2272 3.82575C23.2272 5.72562 22.0254 7.12182 19.3889 7.12182H16.6553V0.51082H19.5732ZM18.3032 5.91014H19.379C21.0366 5.91014 21.531 4.78546 21.531 3.81596C21.531 2.68173 20.9202 1.72234 19.3596 1.72234H18.3032V5.91014H18.3032ZM26.506 2.07835L24.428 0H31.9928V7.56515L29.9149 5.48704V2.07835H26.506ZM26.5035 2.49481L24.3641 4.63413V7.6288H27.3584L29.4977 5.48948H26.5035V2.49481Z" fill="#2C2C2C"/>
</svg>
