<svg width="253" height="143" viewBox="0 0 253 143" fill="none" xmlns="http://www.w3.org/2000/svg">
<path opacity="0.2" d="M4.53401 121.773C3.67039 126.242 1.55452 136.744 0 143H252.933V12.8477L232.206 4.46875L216.013 12.8477L210.831 0L203.059 24.0195L192.695 12.8477L176.179 38.543L161.605 31.8398L144.44 54.1836L138.287 49.1563L134.401 69.2656H126.952L114.646 99.4297L105.472 84.9063L93.271 99.4297L81.6121 60.3281H77.402L69.9532 69.2656L67.0385 60.3281L60.5614 69.2656L55.3796 49.1563H44.0446L32.0619 84.9063L28.4995 74.293L22.3462 80.4375L16.5167 113.953L4.53401 121.773Z" fill="url(#paint0_linear_0_205)"/>
<defs>
<linearGradient id="paint0_linear_0_205" x1="126.466" y1="0" x2="126.466" y2="143" gradientUnits="userSpaceOnUse">
<stop stop-color="#6425FE" stop-opacity="0.68"/>
<stop offset="1" stop-color="#6425FE" stop-opacity="0"/>
</linearGradient>
</defs>
</svg>
