<svg width="78" height="25" viewBox="0 0 78 25" fill="none" xmlns="http://www.w3.org/2000/svg">
<path d="M76.4956 6.09999H78V24.5L-1.3113e-06 24.5V8.34021L2.25657 13.9402L3.1531 16.1802H4.20413L6.3062 13.9402L7.77764 16.1802L12.192 16.1804L14.5042 13.9403L15.7655 10.5797L17.6012 12.2602L19.256 13.9402L19.7728 16.5L20.8239 16.1802H22.1144L24.5214 8.34021L25.2736 10.5802L26.4771 8.34021L27.3797 12.2602L29.7867 5.54021L31.1406 8.34021H33.6981L36.406 2.74022L38.0608 5.54021L40.2401 3.86L42.8955 8.33999L44.6028 0.499999L45.8384 8.33999L54.0804 11.7L55.1334 9.45998H56.1865L58.5935 6.09999H61.0005L61.9031 9.45998L65.5137 2.73999L67.018 11.7L67.7702 8.33999H69.425L70.9294 0.499999L72.4338 7.21999L73.186 3.86H75.1417L76.4956 6.09999Z" fill="url(#paint0_linear_0_126)" fill-opacity="0.16"/>
<defs>
<linearGradient id="paint0_linear_0_126" x1="39" y1="24.5" x2="39" y2="0.499999" gradientUnits="userSpaceOnUse">
<stop stop-color="#77B900" stop-opacity="0"/>
<stop offset="0.809892" stop-color="#77B900"/>
</linearGradient>
</defs>
</svg>
