<svg width="620" height="214" viewBox="0 0 620 214" fill="none" xmlns="http://www.w3.org/2000/svg">
<path opacity="0.2" d="M9.19491 198.314L0 214H620V14.0052L602.267 29.6911L593.072 62.7435L589.788 57.7016H577.966L569.428 29.6911L559.576 35.2932L550.381 22.9686L542.5 27.4503L537.903 19.0471L524.767 11.7644L513.602 35.2932L494.555 6.72251L486.674 22.9686L482.076 11.7644L472.881 0L465.657 11.7644L455.148 35.2932L448.581 39.7749L438.072 52.0995L425.593 68.9058L419.025 88.5131L413.114 109.801L399.322 105.88L393.411 94.6754L390.127 76.7487L383.559 68.9058L375.021 88.5131L371.081 103.079L363.199 88.5131L354.004 83.4712L346.123 94.6754L334.958 68.9058V42.0157H326.419C324.23 47.0576 319.852 57.5895 319.852 59.3822C319.852 61.1749 315.911 33.2391 313.941 19.0471L304.746 29.6911L295.551 22.9686L290.297 0L281.758 27.4503L272.564 42.0157L267.966 22.9686L256.801 44.8168H248.919L244.979 68.9058L235.784 83.4712H225.932L215.424 59.3822L208.856 33.0524L204.915 83.4712V109.801H197.034L189.153 88.5131L183.242 94.6754L180.614 112.042H172.076L159.597 122.126L156.97 136.691L149.746 138.932L142.521 171.984L136.61 162.461L131.356 132.77L118.877 122.126L109.025 138.932H101.801L94.5763 149.576L82.0975 122.126L74.8729 94.6754L64.3644 101.958L55.8263 138.932L48.6017 165.262L34.8093 178.147L28.8983 165.262L21.0169 174.785L9.19491 198.314Z" fill="url(#paint0_linear_0_303)"/>
<defs>
<linearGradient id="paint0_linear_0_303" x1="310" y1="0" x2="310" y2="214" gradientUnits="userSpaceOnUse">
<stop stop-color="#6425FE" stop-opacity="0.68"/>
<stop offset="1" stop-color="#6425FE" stop-opacity="0"/>
</linearGradient>
</defs>
</svg>
