<svg width="25" height="24" viewBox="0 0 25 24" fill="none" xmlns="http://www.w3.org/2000/svg">
<g clip-path="url(#clip0_0_343)">
<rect x="0.5" width="24" height="24" rx="4" fill="#E41F2B"/>
<path d="M0.512329 8H24.4878V16.784H0.512329V8Z" fill="#E41F2B"/>
<path d="M22.1136 10.1063C22.1229 10.0481 22.1579 9.99914 22.1835 9.95021C22.2394 9.83837 22.2953 9.72886 22.3256 9.6077C22.3373 9.55644 22.3583 9.49353 22.3117 9.45392C22.2581 9.40732 22.1998 9.44693 22.1509 9.47489C22.0181 9.55178 21.9016 9.64731 21.7874 9.74517C21.4379 10.0411 21.1257 10.3766 20.8391 10.7354C20.3079 11.4018 19.8396 12.1101 19.4108 12.844C19.3246 12.9908 19.2384 13.1376 19.1639 13.3054C19.2291 13.3054 19.2664 13.2681 19.3037 13.2401C19.511 13.0817 19.7114 12.9163 19.9025 12.7415C20.2123 12.4596 20.5106 12.166 20.7995 11.8608C21.0162 11.6324 21.2236 11.3971 21.4169 11.1478C21.5078 11.0313 21.58 11.0057 21.7455 11.036C21.7012 11.1408 21.629 11.227 21.5591 11.3132C21.163 11.8025 20.7389 12.2662 20.2846 12.7019C19.8908 13.077 19.4714 13.4242 19.0217 13.7294C18.9379 13.7853 18.8796 13.8506 18.8377 13.9461C18.7235 14.2047 18.6163 14.468 18.5301 14.7383C18.4998 14.8338 18.4742 14.9317 18.4579 15.0319C18.4462 15.0971 18.4486 15.1624 18.4649 15.2276C18.4975 15.3511 18.5814 15.393 18.6909 15.3255C18.812 15.2532 18.9052 15.146 18.9938 15.0389C19.2268 14.7616 19.4178 14.454 19.6205 14.1558C19.8931 13.7574 20.1844 13.3753 20.5362 13.0421C20.7203 12.8673 20.923 12.7182 21.142 12.5924C21.2608 12.5248 21.3936 12.4899 21.5311 12.4875C21.6942 12.4852 21.827 12.5411 21.9156 12.6833C21.9202 12.6926 21.9319 12.6972 21.9389 12.7019C21.9458 12.6996 21.9505 12.6996 21.9528 12.6996C22.0111 12.5598 22.1253 12.5458 22.2581 12.5528C22.4002 12.5621 22.5447 12.5528 22.6891 12.5551C22.7707 12.5574 22.78 12.5714 22.738 12.6437L22.1928 13.5663C21.8853 14.0882 21.5754 14.6078 21.2841 15.1391C21.2562 15.188 21.2142 15.2462 21.2655 15.2975C21.3168 15.3511 21.375 15.3091 21.4239 15.2789C21.5567 15.1973 21.6732 15.0948 21.7781 14.9783C21.9761 14.7593 22.1579 14.5263 22.3303 14.2886C22.3862 14.2117 22.5004 14.1768 22.5866 14.2094C22.6146 14.221 22.6215 14.2397 22.6099 14.263C22.6006 14.284 22.5866 14.3026 22.5726 14.3236C22.3256 14.701 22.046 15.0528 21.7338 15.379C21.5637 15.5538 21.3843 15.7216 21.1723 15.8474C21.0581 15.9149 20.9393 15.9685 20.8065 15.9918C20.5828 16.0314 20.4127 15.9196 20.3941 15.6959C20.3894 15.6307 20.3801 15.5678 20.3731 15.5002C20.3172 15.5002 20.2962 15.5421 20.2659 15.5701C20.1028 15.7146 19.9304 15.845 19.7324 15.9429C19.6275 15.9942 19.518 16.0128 19.4038 15.9942C19.2244 15.9639 19.0986 15.8264 19.073 15.6377C19.059 15.5421 19.066 15.4466 19.066 15.3394C19.0147 15.3581 18.9938 15.3954 18.9635 15.4256C18.8027 15.5957 18.6373 15.7588 18.4369 15.88C18.346 15.9359 18.2482 15.9732 18.1457 15.9942C17.8987 16.0431 17.668 15.8544 17.6237 15.5794C17.5958 15.3977 17.6214 15.2229 17.6634 15.0482C17.7216 14.7989 17.8101 14.5566 17.8917 14.3142C17.901 14.2886 17.9103 14.263 17.9173 14.2374C17.9453 14.1442 17.9406 14.1418 17.8404 14.1535C17.8288 14.1558 17.8171 14.1558 17.8055 14.1581C17.5352 14.1768 17.5865 14.1558 17.4513 14.3725C17.2393 14.7127 17.011 15.0389 16.7314 15.3301C16.517 15.5538 16.2794 15.7425 16.0067 15.8893C15.8972 15.9499 15.7784 15.9848 15.6526 15.9988C15.3986 16.0244 15.2122 15.8916 15.1563 15.6423C15.105 15.4117 15.14 15.1857 15.2076 14.9643C15.3194 14.6032 15.4825 14.263 15.6969 13.9508C15.9205 13.6269 16.1582 13.317 16.4494 13.0514C16.6801 12.8394 16.9341 12.6623 17.2253 12.5481C17.3278 12.5085 17.4327 12.4852 17.5422 12.4875C17.8265 12.4899 17.9686 12.6297 17.9849 12.9163C17.9965 13.1213 17.9593 13.317 17.887 13.5081C17.8451 13.6199 17.7985 13.7318 17.7449 13.8389C17.7309 13.8646 17.703 13.8949 17.7216 13.9251C17.7449 13.9624 17.7868 13.9345 17.8195 13.9321C17.8474 13.9321 17.8731 13.9228 17.8987 13.9182C18.0129 13.8972 18.0874 13.8343 18.141 13.7271C18.4672 13.0794 18.8353 12.4526 19.2501 11.8561C19.758 11.1268 20.3335 10.4558 21.0045 9.87332C21.2795 9.63566 21.5567 9.39567 21.8946 9.2419C22.0274 9.18132 22.1625 9.13705 22.3093 9.14404C22.4817 9.15103 22.561 9.23025 22.5703 9.40499C22.5773 9.53547 22.547 9.65896 22.5027 9.78012C22.4794 9.8407 22.4491 9.90128 22.4212 9.95953C22.3559 10.0853 22.272 10.125 22.1136 10.1063ZM20.1261 15.3022C20.189 15.2998 20.2496 15.2532 20.3079 15.1996C20.5199 15.0086 20.6853 14.7756 20.8345 14.5356C21.1304 14.0649 21.4146 13.5896 21.7059 13.1166C21.7292 13.077 21.7548 13.0374 21.7688 12.9932C21.7967 12.9046 21.7455 12.8464 21.6523 12.8603C21.5707 12.872 21.4938 12.9023 21.4309 12.9582C21.3168 13.0631 21.1933 13.1586 21.0884 13.2727C20.9113 13.4685 20.7389 13.6688 20.5898 13.8855C20.3685 14.2047 20.1611 14.5333 20.026 14.9014C19.998 14.9783 19.9724 15.0575 19.9677 15.1367C19.9607 15.2439 20.0143 15.3045 20.1261 15.3022ZM16.7267 13.6339C16.6685 13.6852 16.6312 13.7551 16.5869 13.818C16.3819 14.1115 16.1955 14.4144 16.0697 14.7523C16.0347 14.8432 16.0114 14.9387 16.0044 15.0342C15.9881 15.2416 16.1302 15.3488 16.3236 15.2742C16.4192 15.2369 16.5007 15.1787 16.5753 15.1111C16.8549 14.8595 17.0692 14.5542 17.2579 14.2327C17.3185 14.1302 17.3162 14.1279 17.2044 14.0696C17.0482 13.9881 16.9084 13.8879 16.8059 13.7387C16.7826 13.7038 16.7686 13.6619 16.7267 13.6339ZM17.7402 13.0887V13.0421C17.7286 12.844 17.6098 12.7695 17.4234 12.8394C17.3115 12.8813 17.2183 12.9489 17.1414 13.0374C17.0646 13.126 17.0086 13.2262 17.0016 13.3496C16.983 13.6362 17.1904 13.797 17.3908 13.8832C17.442 13.9042 17.47 13.8762 17.4909 13.8343C17.5539 13.7154 17.6191 13.5943 17.6587 13.4638C17.696 13.3403 17.7449 13.2192 17.7402 13.0887ZM11.3142 10.9568C11.3491 10.8519 11.4283 10.8426 11.5215 10.8472C11.6683 10.8519 11.8175 10.8496 11.9642 10.8496C12.104 10.8496 12.111 10.8612 12.0365 10.9847C11.8757 11.255 11.7126 11.5229 11.5495 11.7932C11.2373 12.3128 10.9251 12.8301 10.6129 13.3496C10.5919 13.3869 10.5709 13.4242 10.5663 13.4685C10.5569 13.557 10.6035 13.5966 10.6851 13.564C10.727 13.5477 10.7666 13.5197 10.8062 13.4941C11.0323 13.3403 11.214 13.1376 11.3887 12.9279C11.4726 12.8277 11.5542 12.7229 11.638 12.6204C11.6916 12.5528 11.8338 12.5155 11.9107 12.5481C11.9316 12.5574 11.9386 12.5761 11.927 12.5947C11.9107 12.6204 11.892 12.646 11.8734 12.6716C11.6427 12.9838 11.4074 13.2937 11.1371 13.571C10.8948 13.8203 10.6431 14.0673 10.3216 14.2187C10.2191 14.2676 10.1119 14.3073 9.99775 14.2909C9.83232 14.2676 9.72048 14.1442 9.7065 13.9648C9.70184 13.9158 9.7065 13.8646 9.7065 13.804C9.65058 13.8226 9.62961 13.8622 9.59932 13.8902C9.46418 14.0207 9.31506 14.1302 9.14498 14.2117C9.03081 14.2653 8.91198 14.2909 8.78383 14.2863C8.55782 14.277 8.41802 14.1395 8.40637 13.9112C8.39938 13.79 8.41569 13.6712 8.43899 13.5523C8.44598 13.5197 8.46462 13.4871 8.44598 13.4428C8.32483 13.5523 8.21765 13.6688 8.09183 13.7667C7.9031 13.9158 7.71204 14.0626 7.49069 14.1651C7.29032 14.256 7.08528 14.3212 6.85927 14.284C6.58434 14.2374 6.34901 14.016 6.31872 13.7085C6.29309 13.4382 6.356 13.1842 6.45153 12.9372C6.53308 12.7229 6.63326 12.5178 6.7684 12.2965C6.64957 12.3245 6.55871 12.3454 6.46551 12.3664C6.4259 12.3757 6.41192 12.4083 6.39561 12.4386C6.15795 12.8557 5.86204 13.2285 5.53352 13.5756C5.37042 13.7481 5.198 13.9088 5.00461 14.0463C4.86714 14.1418 4.72269 14.2234 4.55959 14.2676C4.19844 14.3678 3.90254 14.1605 3.87458 13.7853C3.85827 13.564 3.89322 13.3496 3.96079 13.1423C4.11456 12.6809 4.36154 12.2709 4.66444 11.8911C4.87879 11.6231 5.11645 11.3785 5.38906 11.1711C5.5941 11.015 5.81311 10.8822 6.06009 10.8053C6.16494 10.7727 6.27212 10.7517 6.38163 10.768C6.63093 10.8006 6.78238 10.9661 6.79636 11.22C6.81034 11.4787 6.73578 11.7187 6.63559 11.9517C6.61928 11.9889 6.58899 12.0239 6.59831 12.0775C6.66122 12.0821 6.71248 12.0565 6.76374 12.0309C6.96179 11.9353 7.13188 11.8025 7.29731 11.6604C7.48603 11.4973 7.65146 11.3132 7.84718 11.1595C8.03358 11.0127 8.2293 10.8799 8.45763 10.8053C8.60442 10.7564 8.75587 10.754 8.90499 10.789C9.15197 10.8472 9.2871 11.0989 9.22652 11.3785C9.17993 11.5928 9.07508 11.7769 8.92596 11.9353C8.87703 11.9866 8.82111 12.0285 8.75354 12.0495C8.57413 12.1054 8.43899 11.9843 8.4786 11.8025C8.52753 11.5719 8.66267 11.4204 8.89567 11.3692C8.95392 11.3552 9.00052 11.3459 8.99819 11.2713C8.99586 11.1991 8.95625 11.1432 8.88402 11.1315C8.81878 11.1199 8.75354 11.1315 8.69063 11.1571C8.55083 11.2131 8.44132 11.3132 8.33181 11.4134C7.83087 11.8748 7.48137 12.4363 7.2344 13.0677C7.1878 13.1842 7.15518 13.303 7.1645 13.4312C7.18081 13.6968 7.34158 13.8156 7.59787 13.7411C7.78893 13.6852 7.94271 13.5663 8.08717 13.4358C8.46462 13.0933 8.78383 12.6972 9.08673 12.2872C9.33836 11.947 9.60631 11.6185 9.9162 11.3296C10.1399 11.1199 10.3729 10.9195 10.6711 10.8146C10.7294 10.7937 10.7899 10.7797 10.8528 10.7727C10.9926 10.7564 11.1138 10.7937 11.2163 10.8892C11.2443 10.9078 11.2629 10.9404 11.3142 10.9568ZM11.0043 11.1268C10.9624 11.1245 10.9158 11.1432 10.8692 11.1641C10.748 11.22 10.6688 11.3202 10.5802 11.4134C10.1655 11.8585 9.81601 12.3524 9.51544 12.879C9.41991 13.0467 9.33137 13.2215 9.30108 13.4172C9.28011 13.5593 9.35933 13.6246 9.49214 13.5733C9.60398 13.5314 9.69252 13.4568 9.76941 13.3683C9.95581 13.1539 10.1189 12.9233 10.2727 12.6856C10.5639 12.2313 10.8389 11.7676 11.1045 11.2993C11.1721 11.1874 11.1371 11.1268 11.0043 11.1268ZM5.50323 11.8934C5.49624 11.8957 5.48692 11.8981 5.48459 11.9027C5.25392 12.2243 5.03723 12.5551 4.88578 12.9209C4.82986 13.0561 4.7856 13.1982 4.79026 13.3496C4.79492 13.5151 4.8951 13.592 5.06053 13.557C5.18402 13.5314 5.27955 13.4615 5.37042 13.3799C5.64303 13.133 5.85272 12.8347 6.04611 12.5272C6.06941 12.4922 6.09271 12.4549 6.11368 12.4176C6.15329 12.3454 6.15096 12.3361 6.07873 12.3081C6.06708 12.3035 6.05776 12.3012 6.04611 12.2965C5.8434 12.2173 5.66633 12.1054 5.54284 11.919C5.53119 11.9074 5.52187 11.8957 5.50323 11.8934ZM5.7735 11.6884C5.77117 11.7396 5.78748 11.7909 5.81777 11.8375C5.91563 11.9866 6.06475 12.0565 6.23251 12.0891C6.28377 12.0984 6.31173 12.0728 6.3327 12.0285C6.43755 11.8258 6.50745 11.6115 6.52143 11.3855C6.53308 11.2037 6.4492 11.0896 6.27678 11.1105C6.03679 11.1408 5.7735 11.4391 5.7735 11.6884Z" fill="white"/>
<path d="M17.1647 9.42834C17.0832 9.37475 17.0086 9.38873 16.9364 9.39805C16.7546 9.42135 16.5962 9.50057 16.4378 9.58911C16.037 9.81045 15.6852 10.097 15.3543 10.4093C14.9233 10.8147 14.5249 11.248 14.1777 11.728C13.7956 12.2523 13.4531 12.8021 13.1968 13.4009C13.0337 13.7854 12.9125 14.1815 12.8589 14.5962C12.8333 14.8036 12.8589 15.0086 12.9801 15.188C13.1152 15.3907 13.3505 15.4839 13.5905 15.435C13.721 15.4071 13.8422 15.3535 13.954 15.2836C14.2616 15.0878 14.5179 14.8339 14.7369 14.545C14.9419 14.2747 15.1143 13.9858 15.2308 13.6642C15.2868 13.5058 15.3264 13.345 15.338 13.1773C15.3403 13.154 15.3403 13.1307 15.338 13.1074C15.324 12.8697 15.1679 12.7882 14.9629 12.9163C14.8091 13.0118 14.6973 13.154 14.5994 13.3031C14.4806 13.4872 14.399 13.6899 14.3501 13.9019C14.3361 13.9601 14.3105 13.9951 14.2546 14.023C13.954 14.1675 13.6954 14.3702 13.4577 14.6009C13.4461 14.6125 13.4344 14.6218 13.4228 14.6312C13.4181 14.6358 13.4088 14.6335 13.4018 14.6358C13.3762 14.6195 13.3855 14.5939 13.3878 14.5729C13.4461 14.1652 13.5602 13.7761 13.7816 13.4242C14.0053 13.0678 14.2988 12.7858 14.6786 12.5994C14.8487 12.5156 15.0258 12.462 15.2192 12.5086C15.3683 12.5458 15.4732 12.6367 15.5314 12.7812C15.5943 12.9373 15.5873 13.1004 15.5733 13.2635C15.5477 13.5734 15.4219 13.8483 15.2821 14.1186C15.14 14.3958 14.9722 14.6568 14.7742 14.8968C14.441 15.3045 14.0519 15.647 13.5719 15.8707C13.2993 15.9989 13.008 16.0478 12.7098 15.9779C12.3254 15.8847 12.083 15.6307 11.9572 15.2673C11.8128 14.8525 11.8337 14.4308 11.9689 14.0207C12.1483 13.4685 12.4046 12.9513 12.6958 12.448C12.9195 12.0635 13.1688 11.7001 13.4507 11.3576C13.8958 10.8147 14.3967 10.33 14.9675 9.91996C15.3357 9.65668 15.7201 9.42601 16.1372 9.25126C16.4051 9.13942 16.6847 9.08117 16.976 9.0835C17.1321 9.08583 17.2766 9.1301 17.3977 9.22563C17.449 9.26524 17.4886 9.26757 17.5445 9.2466C17.8008 9.14641 18.0687 9.09981 18.3413 9.09049C18.7305 9.07651 19.0963 9.16971 19.4364 9.35378C19.8116 9.55649 20.1867 9.76385 20.5595 9.96889C20.5735 9.97588 20.5874 9.98287 20.5991 9.99219C20.662 10.0341 20.662 10.0411 20.6084 10.097C20.4616 10.2462 20.3125 10.3929 20.168 10.5467C20.1191 10.598 20.0772 10.5933 20.0259 10.5607L19.4947 10.2462C19.2617 10.1064 19.0287 9.96423 18.7957 9.82909C18.5394 9.67997 18.2621 9.57979 17.9709 9.51921C17.8754 9.49824 17.7775 9.49591 17.682 9.51688C17.6377 9.5262 17.6074 9.54484 17.6074 9.60076C17.5981 10.0761 17.4303 10.5048 17.202 10.9102C17.0272 11.2201 16.8012 11.4904 16.5007 11.6931C16.3702 11.7793 16.2304 11.8469 16.0813 11.8888C15.8203 11.9657 15.6129 11.8166 15.5966 11.544C15.5873 11.3739 15.6269 11.2131 15.6898 11.057C15.8646 10.6236 16.1558 10.2718 16.489 9.95258C16.6754 9.7755 16.8781 9.6194 17.0948 9.48193C17.1111 9.46329 17.1298 9.45164 17.1647 9.42834ZM17.3441 9.81045C17.3488 9.62872 17.3441 9.62173 17.2183 9.69162C16.9806 9.82443 16.7709 9.99685 16.5776 10.1902C16.2933 10.4722 16.0626 10.7914 15.8925 11.1525C15.8506 11.2434 15.8157 11.3389 15.8133 11.4414C15.811 11.6045 15.9298 11.6907 16.0836 11.6418C16.2653 11.5859 16.4145 11.4764 16.5543 11.3482C16.7942 11.1246 16.9737 10.8589 17.1181 10.57C17.2439 10.3207 17.3255 10.0528 17.3441 9.81045ZM11.2745 16.1433C11.1557 16.0781 11.0555 16.0198 10.9507 15.9686C10.4963 15.7496 10.021 15.6214 9.51075 15.647C9.2428 15.661 9.00048 15.7379 8.80011 15.922C8.76982 15.9499 8.74186 15.9826 8.7139 16.0152C8.63235 16.113 8.63002 16.1154 8.56012 16.0128C8.44129 15.8404 8.28751 15.7076 8.10344 15.6051C7.83783 15.456 7.54891 15.3907 7.24601 15.3651C6.68449 15.3185 6.13928 15.414 5.59872 15.5445C5.00691 15.689 4.4151 15.8334 3.81396 15.9383C3.53437 15.9872 3.25244 16.0222 2.96818 15.9756C2.46491 15.8917 2.03852 15.6797 1.74495 15.2486C1.6168 15.0622 1.56321 14.8479 1.52593 14.6288C1.43972 14.1279 1.50729 13.6386 1.66107 13.161C1.8498 12.5715 2.1457 12.0379 2.50452 11.5346C2.82605 11.0826 3.19885 10.6772 3.60427 10.3044C4.09822 9.85006 4.64343 9.46562 5.27486 9.22097C5.53348 9.12078 5.7991 9.05554 6.08103 9.05554C6.49809 9.05787 6.73808 9.31883 6.67983 9.72657C6.64488 9.96889 6.54003 10.1856 6.36295 10.3603C6.29772 10.4232 6.22316 10.4698 6.12996 10.4861C6.0088 10.5071 5.90628 10.4372 5.88065 10.3161C5.84104 10.1273 5.94123 9.91064 6.11598 9.81278C6.18821 9.77317 6.26277 9.74055 6.34431 9.73123C6.40023 9.72424 6.4212 9.68929 6.42586 9.63571C6.43751 9.50057 6.36295 9.41203 6.22549 9.40271C6.12763 9.39572 6.0321 9.41436 5.9389 9.44465C5.58474 9.56348 5.27486 9.76385 4.99293 10.0062C4.34753 10.563 3.8093 11.2154 3.34098 11.9237C3.03109 12.3921 2.79111 12.8977 2.64199 13.4406C2.54879 13.7807 2.47889 14.1279 2.50452 14.4867C2.52549 14.7849 2.63034 15.0436 2.85634 15.2486C2.98449 15.3628 3.13361 15.435 3.29438 15.4816C3.43884 15.5235 3.58796 15.5515 3.74173 15.5585C4.22637 15.5841 4.70168 15.5119 5.17234 15.4024C5.78512 15.2579 6.39557 15.1135 7.00836 14.969C7.45571 14.8618 7.90773 14.7873 8.36673 14.7966C9.15426 14.8129 9.88121 15.0226 10.5383 15.4653C10.7713 15.6214 10.981 15.8055 11.179 16.0035C11.2163 16.0361 11.2536 16.0711 11.2745 16.1433ZM24.0964 9.12311C24.108 9.16272 24.0894 9.18369 24.0754 9.20699C23.7329 9.77317 23.2809 10.2275 22.6984 10.5467C22.3209 10.7541 21.9225 10.8986 21.4891 10.9382C21.3097 10.9545 21.1327 10.9452 20.9556 10.9079C20.867 10.8892 20.86 10.8729 20.9136 10.8054C21.0488 10.6353 21.1909 10.4698 21.34 10.3114C21.3773 10.2718 21.4216 10.2741 21.4682 10.2741C21.6383 10.2741 21.8083 10.2811 21.9808 10.2578C22.3722 10.2042 22.7287 10.0598 23.0735 9.87569C23.4277 9.68463 23.7422 9.43999 24.0358 9.16505C24.0475 9.1534 24.0591 9.14408 24.0708 9.13476C24.0754 9.12777 24.0824 9.12777 24.0964 9.12311ZM12.9544 10.8473C13.043 10.8473 13.1339 10.845 13.2224 10.8473C13.2806 10.8496 13.2923 10.8683 13.2597 10.9195C13.1572 11.0896 13.0523 11.255 12.9475 11.4251C12.9218 11.4671 12.8892 11.4834 12.8426 11.481C12.6679 11.481 12.4931 11.4834 12.3184 11.4787C12.2391 11.4787 12.2275 11.4577 12.2694 11.3878C12.3673 11.2247 12.4675 11.064 12.5677 10.9009C12.5933 10.8589 12.6259 10.8426 12.6749 10.845C12.7681 10.8473 12.8613 10.8473 12.9544 10.8473Z" fill="white"/>
</g>
<defs>
<clipPath id="clip0_0_343">
<rect x="0.5" width="24" height="24" rx="4" fill="white"/>
</clipPath>
</defs>
</svg>
