<svg width="25" height="13" viewBox="0 0 25 13" fill="none" xmlns="http://www.w3.org/2000/svg">
<g clip-path="url(#clip0_0_412)">
<path d="M15.7469 16.2502H9.25659V4.58618H15.747L15.7469 16.2502Z" fill="#FF5F00"/>
<path d="M9.668 10.418C9.668 8.05201 10.7758 5.94433 12.501 4.58605C11.1951 3.55638 9.58002 2.99755 7.91708 3.00001C3.82064 3.00001 0.5 6.32113 0.5 10.418C0.5 14.515 3.82064 17.8361 7.91708 17.8361C9.58007 17.8386 11.1952 17.2797 12.5011 16.25C10.7761 14.892 9.668 12.7842 9.668 10.418Z" fill="#EB001B"/>
<path d="M24.503 10.4183C24.503 14.5152 21.1824 17.8363 17.0859 17.8363C15.4228 17.8388 13.8075 17.28 12.5013 16.2503C14.2269 14.892 15.3348 12.7845 15.3348 10.4183C15.3348 8.05213 14.2269 5.94457 12.5013 4.58629C13.8074 3.55666 15.4227 2.99784 17.0858 3.00025C21.1823 3.00025 24.5029 6.32137 24.5029 10.4183" fill="#F79E1B"/>
</g>
<defs>
<clipPath id="clip0_0_412">
<rect width="24" height="24" fill="white" transform="translate(0.5)"/>
</clipPath>
</defs>
</svg>
