<svg width="18" height="12" viewBox="0 0 18 12" fill="none" xmlns="http://www.w3.org/2000/svg">
<path d="M1.87336 7.59696C1.87336 8.25922 2.01865 8.7676 2.2087 9.0752C2.45781 9.4781 2.82933 9.64911 3.20812 9.64911C3.6966 9.64911 4.14353 9.52787 5.00477 8.33666C5.69493 7.38192 6.50778 6.04179 7.05482 5.20161L7.98123 3.77822C8.62474 2.7897 9.3696 1.69083 10.2236 0.945974C10.9211 0.337984 11.673 0.000244141 12.4299 0.000244141C13.7007 0.000244141 14.9112 0.736675 15.8376 2.11786C16.8515 3.63046 17.3436 5.53579 17.3436 7.50194C17.3436 8.67084 17.1132 9.52968 16.7211 10.2082C16.3424 10.8644 15.6042 11.52 14.3623 11.52V9.64882C15.4257 9.64882 15.691 8.67171 15.691 7.55351C15.691 5.96006 15.3195 4.19173 14.501 2.92817C13.9203 2.03191 13.1676 1.48429 12.3394 1.48429C11.4438 1.48429 10.723 2.15992 9.913 3.3642C9.48235 4.00416 9.04029 4.78396 8.54388 5.66394L7.99743 6.63198C6.89986 8.57858 6.62177 9.02173 6.07291 9.75315C5.11098 11.0341 4.28948 11.5197 3.20812 11.5197C1.92523 11.5197 1.11404 10.9642 0.611611 10.1271C0.201513 9.44497 6.10352e-05 8.54988 6.10352e-05 7.53005L1.87336 7.59696Z" fill="white"/>
<path d="M1.47717 2.24969C2.33602 0.925824 3.57546 0 4.99703 0C5.82028 0 6.63888 0.243661 7.49336 0.941516C8.42819 1.70432 9.42456 2.96113 10.6676 5.03159L11.1133 5.77441C12.1893 7.56693 12.8014 8.48912 13.1597 8.92399C13.6205 9.48243 13.9432 9.64894 14.3624 9.64894C15.4257 9.64894 15.691 8.67183 15.691 7.55363L17.3436 7.50176C17.3436 8.67067 17.1132 9.52951 16.7212 10.208C16.3425 10.8642 15.6042 11.5198 14.3624 11.5198C13.5903 11.5198 12.9064 11.3522 12.1501 10.6386C11.5689 10.091 10.8889 9.11818 10.366 8.24364L8.81054 5.64539C8.03015 4.34143 7.31399 3.36919 6.8999 2.92887C6.45413 2.45535 5.88116 1.88361 4.96681 1.88361C4.22682 1.88361 3.59834 2.4029 3.07245 3.19723L1.47717 2.24969Z" fill="white"/>
<path d="M4.96672 1.88361C4.22672 1.88361 3.59825 2.4029 3.07235 3.19723C2.32865 4.31964 1.87366 5.99149 1.87366 7.597C1.87366 8.25926 2.01896 8.76765 2.209 9.07524L0.61155 10.1271C0.201452 9.44502 0 8.54993 0 7.5301C0 5.67547 0.509043 3.74245 1.47708 2.24969C2.33592 0.925824 3.57536 0 4.99694 0L4.96672 1.88361Z" fill="white"/>
</svg>
