<svg width="78" height="24" viewBox="0 0 78 24" fill="none" xmlns="http://www.w3.org/2000/svg">
<path d="M1.50438 5.59999H0L0 24L78 24V7.84021L75.7434 13.4402L74.8469 15.6802H73.7959L71.6938 13.4402L70.2224 15.6802L65.808 15.6804L63.4958 13.4403L62.2345 10.0797L60.3988 11.7602L58.744 13.4402L58.2272 16L57.1761 15.6802H55.8856L53.4786 7.84021L52.7264 10.0802L51.5229 7.84021L50.6203 11.7602L48.2133 5.04021L46.8594 7.84021H44.3019L41.594 2.24022L39.9392 5.04021L37.7599 3.36L35.1045 7.83999L33.3972 -1.43051e-06L32.1616 7.83999L23.9196 11.2L22.8666 8.95998H21.8135L19.4065 5.59999H16.9995L16.0969 8.95998L12.4863 2.23999L10.982 11.2L10.2298 7.83999H8.57496L7.07058 -1.43051e-06L5.5662 6.71999L4.81401 3.36H2.85832L1.50438 5.59999Z" fill="url(#paint0_linear_0_26)" fill-opacity="0.16"/>
<defs>
<linearGradient id="paint0_linear_0_26" x1="39" y1="24" x2="39" y2="-1.43051e-06" gradientUnits="userSpaceOnUse">
<stop stop-color="#77B900" stop-opacity="0"/>
<stop offset="0.809892" stop-color="#77B900"/>
</linearGradient>
</defs>
</svg>
