<svg width="24" height="18" viewBox="0 0 24 18" fill="none" xmlns="http://www.w3.org/2000/svg">
<path d="M23.8325 17.1124C23.8325 17.37 23.6434 17.5428 23.4196 17.5428V17.5412C23.1894 17.5428 23.0038 17.3699 23.0038 17.1125C23.0038 16.8551 23.1894 16.6828 23.4196 16.6828C23.6435 16.6827 23.8325 16.8551 23.8325 17.1124ZM24 17.1124C24 16.759 23.7255 16.5539 23.4196 16.5539C23.1115 16.5539 22.837 16.759 22.837 17.1124C22.837 17.4656 23.1116 17.6716 23.4196 17.6716C23.7255 17.6716 24 17.4656 24 17.1124ZM23.3233 17.1597H23.3854L23.5294 17.4126H23.6875L23.528 17.149C23.6104 17.1432 23.6782 17.104 23.6782 16.993C23.6782 16.8551 23.5831 16.8108 23.4222 16.8108H23.1892V17.4126H23.3231L23.3233 17.1597ZM23.3233 17.0578V16.913H23.4164C23.4671 16.913 23.5361 16.9171 23.5361 16.9789C23.5361 17.0461 23.5004 17.0578 23.4407 17.0578H23.3233ZM20.0911 14.0339L20.8148 16.0137H19.345L20.0911 14.0339ZM19.3161 13.2631L17.6483 17.4886H18.8259L19.0897 16.7419H21.0634L21.3131 17.4886H22.5915L20.9113 13.2625L19.3161 13.2631ZM15.9678 17.4902H17.1626V13.2618L15.9676 13.2615L15.9678 17.4902ZM7.67323 13.2615L6.67638 16.6129L5.72146 13.2618L4.43228 13.2615L5.7961 17.4902H7.5174L8.89221 13.2615H7.67323ZM12.5028 14.1823H13.0164C13.7613 14.1823 14.2432 14.5167 14.2432 15.3847C14.2432 16.2529 13.7613 16.5874 13.0164 16.5874H12.5028V14.1823ZM11.318 13.2615V17.4902H13.255C14.287 17.4902 14.624 17.3187 14.9884 16.9339C15.2458 16.6637 15.4123 16.0706 15.4123 15.4224C15.4123 14.8278 15.2714 14.2978 15.0258 13.9676C14.5833 13.377 13.9458 13.2615 12.9943 13.2615H11.318ZM0 13.2556V17.4902H1.20492V14.2749L2.13853 14.2751C2.44766 14.2751 2.66803 14.3522 2.81689 14.5112C3.0057 14.7123 3.0828 15.0369 3.0828 15.6308V17.4902H4.25036V15.1506C4.25036 13.4808 3.18605 13.2556 2.14468 13.2556H0ZM9.39507 13.2615L9.39555 17.4902H10.5898V13.2615H9.39507Z" fill="#2C2C2C"/>
<path d="M3.21114 4.84166C3.21114 4.84166 4.74786 2.57434 7.81618 2.33977V1.51719C4.41762 1.79013 1.47461 4.66855 1.47461 4.66855C1.47461 4.66855 3.14148 9.48712 7.81618 9.92839V9.05405C4.38567 8.62248 3.21114 4.84166 3.21114 4.84166ZM7.81618 7.3152V8.116C5.22347 7.6537 4.5038 4.95863 4.5038 4.95863C4.5038 4.95863 5.74867 3.57958 7.81618 3.35594V4.23459C7.81461 4.23459 7.81351 4.23411 7.81222 4.23411C6.72708 4.10389 5.87937 5.1176 5.87937 5.1176C5.87937 5.1176 6.3545 6.82408 7.81618 7.3152ZM7.81618 0V1.51719C7.91594 1.50954 8.01571 1.50306 8.11602 1.49964C11.9798 1.36942 14.4973 4.66855 14.4973 4.66855C14.4973 4.66855 11.6059 8.18449 8.59348 8.18449C8.3174 8.18449 8.05894 8.15888 7.81618 8.11586V9.05405C8.03089 9.08164 8.24713 9.0956 8.4636 9.09584C11.2668 9.09584 13.2941 7.66421 15.257 5.96982C15.5825 6.23047 16.9149 6.86458 17.1888 7.14209C15.3224 8.70476 10.9726 9.96438 8.50656 9.96438C8.26885 9.96438 8.04057 9.95004 7.81618 9.92839V11.2467H18.4711V0H7.81618ZM7.81618 3.35594V2.33977C7.91492 2.33287 8.01441 2.32762 8.11602 2.32441C10.8945 2.23714 12.7173 4.71205 12.7173 4.71205C12.7173 4.71205 10.7485 7.44638 8.63746 7.44638C8.33365 7.44638 8.06126 7.39755 7.81611 7.31513V4.23452C8.89777 4.36522 9.11547 4.84302 9.76576 5.92707L11.2121 4.70754C11.2121 4.70754 10.1564 3.32289 8.37661 3.32289C8.18308 3.32282 7.99796 3.33648 7.81618 3.35594Z" fill="#2C2C2C"/>
</svg>
