<svg width="20" height="24" viewBox="0 0 20 24" fill="none" xmlns="http://www.w3.org/2000/svg">
<path d="M10.0201 22.6643C10.215 22.5669 15.283 20.374 16.8911 19.0582C18.548 17.6938 19.4251 15.7445 19.4251 13.4054V2.44096L19.2789 2.39223C15.2343 0.199337 10.215 0.345529 9.97134 0.345529C9.77641 0.345529 4.75712 0.199337 0.712452 2.39223L0.61499 2.44096V13.4542C0.61499 15.7932 1.49215 17.7425 3.149 19.107C4.75712 20.4227 9.82514 22.6156 10.0201 22.6643Z" fill="#341B14"/>
<path d="M10.02 22.9077C10.02 22.9077 4.65964 20.5686 3.00279 19.2529C1.24847 17.7909 0.420044 15.793 0.420044 13.5026V2.09956C4.65964 -0.1908 10.02 0.004124 10.02 0.004124C10.02 0.004124 15.3805 -0.1908 19.62 2.09956V13.4539C19.62 15.7442 18.7916 17.7422 17.0373 19.2041C15.3805 20.5686 10.02 22.9077 10.02 22.9077ZM1.19974 13.5026C1.19974 15.6468 1.97944 17.4011 3.4901 18.6194C4.85456 19.7402 8.89923 21.5432 10.02 22.0305C11.1409 21.5432 15.2343 19.6914 16.55 18.6194C18.0607 17.4011 18.8403 15.598 18.8403 13.5026V2.29448C13.1876 1.75844 6.46268 2.05082 1.19974 6.92392V13.5026Z" fill="#FFB406"/>
<path d="M15.4293 11.8947C16.1603 12.3333 16.4527 12.6257 16.5014 13.1617C16.5014 13.7465 16.1116 14.0876 15.4781 14.0876C14.942 14.0876 14.3085 13.7952 13.8699 13.4054V14.9648C14.406 15.2572 15.0395 15.5008 15.7217 15.5008C17.3786 15.5008 18.1583 14.3313 18.1583 13.2592C18.207 12.2846 17.9146 11.5049 16.5014 10.6765C15.8679 10.2866 15.3806 10.043 15.3806 9.45818C15.3806 8.87341 15.9166 8.62976 16.3552 8.62976C16.94 8.62976 17.5248 8.97087 17.8659 9.31199V7.85006C17.5735 7.60641 16.94 7.26529 16.0141 7.31402C14.8933 7.36275 13.7238 8.14245 13.7238 9.50691C13.7725 10.4328 14.0649 11.115 15.4293 11.8947ZM9.67908 15.4034C9.82527 15.4521 10.0689 15.5008 10.4588 15.5008C12.3593 15.5008 13.4314 13.7952 13.4314 11.3587C13.4314 8.87341 12.3106 7.36275 10.3126 7.36275C9.3867 7.36275 8.65573 7.55768 8.02223 7.94752V18.9607H9.67908V15.4034ZM9.67908 8.77595C9.82527 8.72722 10.0689 8.62976 10.2639 8.62976C11.2385 8.62976 11.6283 9.40945 11.6283 11.31C11.6283 13.1617 11.141 14.0389 10.1664 14.0389C9.92274 14.0389 9.72781 13.9902 9.63035 13.9414V8.77595H9.67908ZM4.56233 15.5008C5.58568 15.5008 6.46284 15.2572 7.09634 14.8186V7.46021H5.39076V13.844C5.19583 13.9902 4.95218 14.0389 4.61106 14.0389C3.83137 14.0389 3.7339 13.3079 3.7339 12.8694V7.46021H2.02832V12.7719C2.02832 14.5749 2.90548 15.5008 4.56233 15.5008ZM15.9166 22.0795V23.2003H16.1116V22.7617H16.1603L16.4527 23.2003H16.6963C16.6963 23.2003 16.404 22.7617 16.3552 22.713C16.5014 22.6643 16.5989 22.5668 16.5989 22.4206C16.5989 22.2744 16.5014 22.0795 16.209 22.0795H15.9166ZM16.209 22.2257C16.3552 22.2257 16.404 22.3232 16.404 22.3719C16.404 22.4694 16.3552 22.5668 16.1603 22.5668H16.1116V22.2257H16.209Z" fill="#FFB406"/>
<path d="M16.9888 22.6155C16.9888 23.0054 16.6476 23.3465 16.2578 23.3465C15.8679 23.3465 15.5268 23.0054 15.5268 22.6155C15.5268 22.2257 15.8679 21.8846 16.2578 21.8846C16.6964 21.8846 16.9888 22.2257 16.9888 22.6155ZM16.2578 21.6896C15.7705 21.6896 15.3319 22.0795 15.3319 22.6155C15.3319 23.1028 15.7218 23.5414 16.2578 23.5414C16.7451 23.5414 17.1837 23.1516 17.1837 22.6155C17.1837 22.1282 16.7451 21.6896 16.2578 21.6896Z" fill="#FFB406"/>
</svg>
