<svg width="80" height="18" viewBox="0 0 80 18" fill="none" xmlns="http://www.w3.org/2000/svg">
<path d="M79 6.59999H77.4956L76.1417 4.36H74.186L73.4338 7.71999L71.9294 0.999999L70.425 8.83999H68.7702L68.018 12.2L66.5137 3.23999L62.9031 9.95998L62.0005 6.59999H59.5935L57.1865 9.95998H56.1334L55.0804 12.2L46.8384 8.83999L45.6028 0.999999L43.8955 8.83999L41.2401 4.36L39.0608 6.04021L37.406 3.24022L34.6981 8.8402H32.1406L30.7867 6.04021L28.3797 12.7602L27.4771 8.8402L26.2736 11.0802L25.5214 8.8402L23.1144 16.6802H21.8239L20.7728 17L20.256 14.4402L18.6012 12.7602L16.7655 11.0797L15.5042 14.4403L13.192 16.6804L8.77764 16.6802L7.30619 14.4402L5.20413 16.6802H4.1531L3.25658 14.4402L1 8.8402" stroke="#6C8C3C" stroke-linecap="round"/>
</svg>
