<svg width="17" height="17" viewBox="0 0 17 17" fill="none" xmlns="http://www.w3.org/2000/svg">
<path d="M8.49351 16.9124L10.8697 3.54864C13.1346 3.54864 13.849 3.797 13.9522 4.81074C13.9522 4.81074 15.4715 4.24423 16.2379 3.09365C13.2475 1.70797 10.2428 1.64548 10.2428 1.64548L8.48956 3.78093L8.49351 3.78066L6.74024 1.64514C6.74024 1.64514 3.73553 1.7077 0.745544 3.09338C1.51119 4.24396 3.03117 4.81048 3.03117 4.81048C3.13492 3.79667 3.84845 3.54831 6.09817 3.5467L8.49351 16.9124Z" fill="#2C2C2C"/>
<path d="M8.49251 1.02869C10.9098 1.0102 13.6767 1.40264 16.5091 2.63714C16.8877 1.95576 16.985 1.65462 16.985 1.65462C13.8887 0.429621 10.9891 0.0103938 8.49218 -0.00012207C5.99537 0.0103938 3.09588 0.429688 0 1.65462C0 1.65462 0.138112 2.02555 0.475557 2.63714C3.30747 1.40264 6.07481 1.0102 8.49218 1.02869H8.49251Z" fill="#2C2C2C"/>
</svg>
